HIERARCHY
ROOT Hips
{
	OFFSET 0.00000 0.00000 0.00000
	CHANNELS 6 Xposition Yposition Zposition Zrotation Yrotation Xrotation 
	JOINT LHipJoint
	{
		OFFSET 0 0 0
		CHANNELS 3 Zrotation Yrotation Xrotation
		JOINT LeftUpLeg
		{
			OFFSET 1.53794 -1.55850 0.93568
			CHANNELS 3 Zrotation Yrotation Xrotation
			JOINT LeftLeg
			{
				OFFSET 2.28545 -6.27922 0.00000
				CHANNELS 3 Zrotation Yrotation Xrotation
				JOINT LeftFoot
				{
					OFFSET 2.37329 -6.52057 0.00000
					CHANNELS 3 Zrotation Yrotation Xrotation
					JOINT LeftToeBase
					{
						OFFSET 0.14846 -0.40788 2.09160
						CHANNELS 3 Zrotation Yrotation Xrotation
						End Site
						{
							OFFSET 0.00000 -0.00000 1.07536
						}
					}
				}
			}
		}
	}
	JOINT RHipJoint
	{
		OFFSET 0 0 0
		CHANNELS 3 Zrotation Yrotation Xrotation
		JOINT RightUpLeg
		{
			OFFSET -1.78290 -1.55850 0.93568
			CHANNELS 3 Zrotation Yrotation Xrotation
			JOINT RightLeg
			{
				OFFSET -2.24144 -6.15831 0.00000
				CHANNELS 3 Zrotation Yrotation Xrotation
				JOINT RightFoot
				{
					OFFSET -2.35091 -6.45907 0.00000
					CHANNELS 3 Zrotation Yrotation Xrotation
					JOINT RightToeBase
					{
						OFFSET -0.14428 -0.39641 2.07944
						CHANNELS 3 Zrotation Yrotation Xrotation
						End Site
						{
							OFFSET -0.00000 -0.00000 1.06864
						}
					}
				}
			}
		}
	}
	JOINT LowerBack
	{
		OFFSET 0 0 0
		CHANNELS 3 Zrotation Yrotation Xrotation
		JOINT Spine
		{
			OFFSET -0.08841 2.11430 -0.15818
			CHANNELS 3 Zrotation Yrotation Xrotation
			JOINT Spine1
			{
				OFFSET -0.00033 2.12605 -0.08097
				CHANNELS 3 Zrotation Yrotation Xrotation
				JOINT Neck
				{
					OFFSET 0 0 0
					CHANNELS 3 Zrotation Yrotation Xrotation
					JOINT Neck1
					{
						OFFSET 0.04431 1.59447 0.43193
						CHANNELS 3 Zrotation Yrotation Xrotation
						JOINT Head
						{
							OFFSET 0.00455 1.62017 -0.58852
							CHANNELS 3 Zrotation Yrotation Xrotation
							End Site
							{
								OFFSET -0.00920 1.72955 -0.25850
							}
						}
					}
				}
				JOINT LeftShoulder
				{
					OFFSET 0 0 0
					CHANNELS 3 Zrotation Yrotation Xrotation
					JOINT LeftArm
					{
						OFFSET 2.86490 1.49927 -0.33774
						CHANNELS 3 Zrotation Yrotation Xrotation
						JOINT LeftForeArm
						{
							OFFSET 4.87408 -0.00000 0.00000
							CHANNELS 3 Zrotation Yrotation Xrotation
							JOINT LeftHand
							{
								OFFSET 2.76729 -0.00000 0.00000
								CHANNELS 3 Zrotation Yrotation Xrotation
								JOINT LeftFingerBase
								{
									OFFSET 0 0 0
									CHANNELS 3 Zrotation Yrotation Xrotation
									JOINT LeftHandIndex1
									{
										OFFSET 0.98922 -0.00000 0.00000
										CHANNELS 3 Zrotation Yrotation Xrotation
										End Site
										{
											OFFSET 0.79753 -0.00000 0.00000
										}
									}
								}
								JOINT LThumb
								{
									OFFSET 0 0 0
									CHANNELS 3 Zrotation Yrotation Xrotation
									End Site
									{
										OFFSET 0.80972 -0.00000 0.80972
									}
								}
							}
						}
					}
				}
				JOINT RightShoulder
				{
					OFFSET 0 0 0
					CHANNELS 3 Zrotation Yrotation Xrotation
					JOINT RightArm
					{
						OFFSET -2.94414 1.45463 -0.25291
						CHANNELS 3 Zrotation Yrotation Xrotation
						JOINT RightForeArm
						{
							OFFSET -4.71404 -0.00000 0.00000
							CHANNELS 3 Zrotation Yrotation Xrotation
							JOINT RightHand
							{
								OFFSET -2.83468 -0.00000 0.00000
								CHANNELS 3 Zrotation Yrotation Xrotation
								JOINT RightFingerBase
								{
									OFFSET 0 0 0
									CHANNELS 3 Zrotation Yrotation Xrotation
									JOINT RightHandIndex1
									{
										OFFSET -0.86820 -0.00000 0.00000
										CHANNELS 3 Zrotation Yrotation Xrotation
										End Site
										{
											OFFSET -0.69996 -0.00000 0.00000
										}
									}
								}
								JOINT RThumb
								{
									OFFSET 0 0 0
									CHANNELS 3 Zrotation Yrotation Xrotation
									End Site
									{
										OFFSET -0.71065 -0.00000 0.71065
									}
								}
							}
						}
					}
				}
			}
		}
	}
}
MOTION
Frames: 16
Frame Time: 0.0666667
0.00 0.00 0.00 0 0 0 0 0 0 -21 0 0 0 0 0 0 0 0 0 0 0 0 0 0 21 0 0 0 0 0 0 0 0 0 0 0 0 0 0 0 0 0 0 0 0 0 0 -16 0 0 21 0 0 11 0 0 0 -8 0 0 0 0 0 0 0 0 0 0 0 0 0 0 0 0 0 0 0 0 8 0 0 0 0 0 0 0 0 0 0 0 0 0 0 0 0 0
0.00 0.00 0.00 177.6490 -1.5082 -172.9080 0.0000 0.0000 0.0000 -23.2253 -13.5989 -25.0988 4.1776 12.3931 37.1371 -0.5556 13.3837 -1.8688 0.2178 -3.0042 -8.2904 0.0000 0.0000 0.0000 18.4904 -2.0668 -4.1152 -12.5375 -18.6087 67.6827 0.2082 -21.5301 13.5127 -0.6627 5.2064 -14.4983 -4.9619 2.4232 -1.3742 -2.3593 3.2561 0.6532 0.4268 1.5471 1.3003 -3.1616 -2.6621 -37.1531 4.9459 -6.9931 39.6769 0.9448 -2.8319 24.5889 -0.0000 -0.0000 0.0000 -70.3326 32.9708 58.1077 114.8418 -57.5347 -81.3355 -0.0000 -0.0000 16.5655 14.0364 2.0122 0.5030 -7.1250 0.0000 -0.0000 -10.0622 31.9478 3.2576 -0.0000 -0.0000 0.0000 80.6391 -18.6346 53.8436 -98.6312 59.7166 -67.4677 0.0000 0.0000 8.4650 -13.9485 -1.1629 0.2888 7.1250 -0.0000 -0.0000 10.0334 -31.0841 3.4595
0.00 0.00 0.00 173.9160 -0.1218 -174.1610 0.0000 0.0000 0.0000 -29.1844 -9.8520 -17.6636 4.7987 13.1535 39.9457 -1.0330 17.7151 -8.3767 0.4123 -4.1219 -11.4200 0.0000 0.0000 0.0000 11.0369 1.0659 -17.3166 -18.9854 -19.9753 87.0324 0.6170 -18.3787 6.3066 -0.7015 5.3537 -14.9202 -9.4115 1.5243 1.0977 -3.3583 1.7014 1.4220 1.7756 0.6533 0.6713 -1.3683 -1.6942 -36.5421 5.4033 -6.3389 38.0648 1.0918 -2.1803 22.1719 -0.0000 -0.0000 0.0000 -76.0377 21.8154 57.4776 107.1095 -58.8645 -74.7608 -0.0000 -0.0000 17.1949 14.7599 4.2267 1.1124 -7.1250 0.0000 -0.0000 -9.7621 34.2233 2.6134 -0.0000 -0.0000 0.0000 83.8748 -27.1202 42.2920 -78.2580 59.4726 -49.8491 0.0000 0.0000 8.8956 -17.0955 -3.6612 1.1251 7.1250 -0.0000 -0.0000 7.7943 -33.7333 2.1706
0.00 0.00 0.00 173.6400 -2.6692 -171.0100 0.0000 0.0000 0.0000 -29.9223 -6.2631 -0.8325 2.4431 9.7337 28.1186 0.0670 8.8559 7.3986 0.8793 -5.9779 -16.7202 0.0000 0.0000 0.0000 8.0891 10.1258 -43.1488 -15.9647 -19.6050 78.1266 1.1434 -19.0757 -2.2618 -0.9801 6.3021 -17.6634 -8.7898 -4.1942 0.1907 -2.3197 -5.7693 0.4973 2.4193 -3.0085 1.0207 3.7619 0.7359 -35.6565 0.1170 0.2999 38.5261 -0.2891 1.2514 21.7868 -0.0000 -0.0000 0.0000 -78.9110 8.2270 56.8000 121.3040 -55.9523 -86.7416 -0.0000 -0.0000 18.2154 15.1862 3.1426 0.8525 -7.1250 0.0000 -0.0000 -9.2784 33.1332 2.7290 -0.0000 -0.0000 0.0000 79.3696 -44.5931 34.0034 -68.9757 58.2621 -41.8987 0.0000 0.0000 6.9849 -14.3374 -0.1658 0.0424 7.1250 -0.0000 -0.0000 9.6225 -30.0774 3.5492
0.00 0.00 0.00 174.3500 -2.5589 -169.1500 0.0000 0.0000 0.0000 -28.3401 -3.4454 5.4666 1.0907 6.6371 18.6446 1.7511 6.6724 23.7622 0.3234 -3.6551 -10.1082 0.0000 0.0000 0.0000 8.0469 13.9425 -45.5875 -9.9423 -17.3773 59.2952 1.4785 -22.2955 -0.0959 -0.8028 5.7184 -15.9695 -8.1923 -6.0619 -1.7537 -0.8000 -8.0102 -0.3052 3.3828 -4.0880 1.6554 4.9394 2.5407 -35.5670 -2.0464 3.4797 38.6854 -0.7550 2.2184 22.0741 0.0000 0.0000 0.0000 -76.6700 7.5205 56.8990 125.6126 -54.6187 -90.2841 -0.0000 -0.0000 19.3310 14.8686 2.6296 0.6979 -7.1250 0.0000 -0.0000 -9.4719 32.5992 2.9110 0.0000 0.0000 0.0000 75.8882 -49.0562 33.5424 -71.5790 58.6782 -44.1177 0.0000 0.0000 5.2690 -12.9840 0.0477 -0.0110 7.1250 -0.0000 -0.0000 10.6546 -29.8434 4.0020
0.00 0.00 0.00 174.7660 -2.4814 -167.2980 0.0000 0.0000 0.0000 -27.2339 -0.7937 10.8984 0.4026 4.0736 11.2839 4.1854 8.9220 37.3050 0.0005 0.1453 0.3993 0.0000 0.0000 0.0000 7.3622 16.5749 -44.8192 -4.4940 -12.7903 38.5883 1.0049 -22.5014 7.0042 -0.7646 5.5839 -15.5818 -7.0646 -7.1157 -4.2599 0.0591 -9.2536 -1.0842 3.2928 -4.6995 2.3560 5.9529 3.6016 -35.2190 -3.3316 5.1542 38.5074 -1.1448 2.7697 22.0721 0.0000 0.0000 0.0000 -73.0143 7.5507 57.9777 127.7924 -53.8480 -92.0529 -0.0000 -0.0000 19.7830 13.4256 2.3531 0.5615 -7.1250 0.0000 -0.0000 -10.5900 32.2761 3.3484 0.0000 0.0000 0.0000 74.7783 -52.3121 31.7032 -72.6661 58.8337 -45.0472 0.0000 0.0000 4.7614 -11.8835 -0.1401 0.0295 7.1250 -0.0000 -0.0000 11.5312 -30.0163 4.2945
0.00 0.00 0.00 172.6800 -2.2275 -168.7060 0.0000 0.0000 0.0000 -29.4703 0.4789 12.3001 1.9238 8.7055 24.8784 3.3876 12.9640 33.3234 0.0699 1.7057 4.6931 0.0000 0.0000 0.0000 6.8821 16.2017 -40.6230 -1.9579 -8.7778 25.1028 -1.0228 -19.6745 21.2980 -0.4362 4.2379 -11.7468 -8.0332 -7.0850 -5.8325 -0.9065 -9.0214 -0.5710 2.5971 -4.6510 3.7274 5.9296 3.4445 -35.0009 -3.6606 5.0951 38.4216 -1.3338 2.7019 21.9649 -0.0000 0.0000 0.0000 -70.7663 8.1562 56.9399 122.2323 -55.6852 -87.5096 -0.0000 -0.0000 19.1986 10.2820 0.4331 0.0786 -7.1250 0.0000 -0.0000 -12.8114 30.2802 4.7094 -0.0000 0.0000 0.0000 78.7154 -51.8614 25.8887 -64.6051 57.4172 -38.1980 0.0000 0.0000 5.0829 -9.8151 -0.3261 0.0564 7.1250 -0.0000 -0.0000 13.1589 -30.1653 4.8805
0.00 0.00 0.00 173.2590 -1.1162 -171.2740 0.0000 0.0000 0.0000 -28.0562 2.4505 7.3961 5.5786 14.0072 43.2661 2.0875 13.5930 26.2583 0.0022 0.3003 0.8251 0.0000 0.0000 0.0000 13.0906 10.4733 -36.9288 -2.7891 -10.3456 30.1033 -0.2717 -11.8194 11.6883 -0.7850 5.6564 -15.7906 -7.8048 -5.7261 -4.9546 -1.0907 -7.2495 0.0595 2.5626 -3.7718 3.6480 4.7430 2.6418 -34.4291 -3.2314 4.4755 38.3810 -1.0715 2.3921 21.6588 0.0000 -0.0000 0.0000 -72.9330 9.6824 54.2223 112.4022 -58.0161 -79.2716 -0.0000 -0.0000 20.6389 8.8734 1.7405 0.2717 -7.1250 0.0000 -0.0000 -14.0968 31.5357 4.7694 0.0000 -0.0000 0.0000 80.2936 -48.9271 24.8879 -58.3971 55.8675 -33.0108 0.0000 0.0000 4.1238 -10.2017 -1.6207 0.2916 7.1250 -0.0000 -0.0000 13.0383 -31.4545 4.4198
0.00 0.00 0.00 176.5160 0.5934 -174.6190 0.0000 0.0000 0.0000 -23.2377 4.1505 1.0367 10.6384 17.7535 61.6016 0.9877 15.7354 19.5317 0.0413 -1.3117 -3.6070 0.0000 0.0000 0.0000 19.2732 10.3204 -30.7586 -4.4163 -12.6947 38.2362 0.3917 -11.0506 -3.1000 -0.9758 6.2884 -17.6234 -5.2485 -3.7501 -1.9275 -0.3970 -4.7974 1.3712 2.2916 -2.4725 2.8933 4.1526 2.1828 -34.1802 -3.5370 4.0608 37.2817 -1.2490 2.0548 20.8195 0.0000 -0.0000 0.0000 -77.5700 10.1988 49.0836 94.5472 -59.9217 -63.9370 -0.0000 -0.0000 24.3867 9.1951 2.3450 0.3795 -7.1250 0.0000 -0.0000 -13.9391 32.1393 4.5044 0.0000 -0.0000 0.0000 81.7045 -41.1818 25.8494 -51.2132 53.4732 -27.1460 0.0000 0.0000 4.5425 -11.2034 -3.6204 0.7166 7.1250 -0.0000 -0.0000 12.5446 -33.4712 3.6199
0.00 0.00 0.00 179.4350 1.0886 -175.7070 0.0000 0.0000 0.0000 -19.5117 0.4979 -9.3417 15.5835 19.5258 76.9882 -0.1339 17.9307 11.3269 0.0435 -1.3457 -3.7006 0.0000 0.0000 0.0000 23.6350 9.4407 -24.2933 -4.7970 -13.1514 39.9381 0.2588 -11.4471 -11.7746 -1.0313 6.4594 -18.1233 -2.8238 -2.4982 -0.3468 0.4069 -3.2506 2.2492 1.9060 -1.6694 2.6875 4.6742 2.1985 -33.9120 -4.0108 3.6926 35.8280 -1.6762 1.8485 19.8434 -0.0000 -0.0000 0.0000 -82.3371 11.1696 41.7371 70.2775 -58.4780 -43.0071 -0.0000 -0.0000 26.6166 10.3393 4.3340 0.7899 -7.1250 0.0000 -0.0000 -13.3552 34.1432 3.6412 -0.0000 -0.0000 0.0000 82.2524 -28.5010 29.0518 -43.1787 49.8444 -20.8372 0.0000 0.0000 8.1697 -11.8176 -4.3389 0.9069 7.1250 -0.0000 -0.0000 12.1638 -34.2122 3.2822
0.00 0.00 0.00 180.6550 5.4815 -173.3560 0.0000 0.0000 0.0000 -14.1589 -13.7526 -35.9283 11.0316 17.9505 62.8841 -1.3763 22.0060 1.0780 0.0769 -1.7894 -4.9240 0.0000 0.0000 0.0000 26.1190 6.2244 -7.2965 -3.2035 -11.0174 32.3385 0.2945 -12.3885 -12.9426 -1.5837 7.9390 -22.5291 -0.9421 2.2821 -0.6780 -0.7111 3.0957 1.4752 -0.1302 1.5483 1.8808 2.0741 1.0919 -33.7199 -0.4202 -0.9755 36.9303 -1.0086 -0.6184 20.1996 -0.0000 -0.0000 0.0000 -83.4290 13.3988 23.3869 21.8894 -32.8518 -6.5257 -0.0000 -0.0000 34.0708 0.8703 4.6430 0.0705 -7.1250 0.0000 -0.0000 -20.9251 33.9852 5.9976 -0.0000 -0.0000 0.0000 87.7534 -4.7083 35.1968 -49.3812 52.7429 -25.6808 0.0000 0.0000 9.7498 -10.7861 -3.1610 0.6019 7.1250 -0.0000 -0.0000 12.8066 -32.9992 3.8487
0.00 0.00 0.00 180.2330 7.2662 -172.7970 0.0000 0.0000 0.0000 -12.8456 -15.0020 -36.4039 6.2452 14.6618 45.9579 -1.0190 20.5503 3.8958 0.0991 -2.0299 -5.5883 0.0000 0.0000 0.0000 25.2225 3.8983 -1.8893 -2.2897 -9.4452 27.1980 0.4272 -12.1080 -8.5520 -1.7026 8.2170 -23.3751 -1.3538 3.2201 -1.2781 -1.3203 4.3725 1.0700 -0.4728 2.1868 1.8144 2.5405 1.1518 -33.6904 -0.5869 -1.0325 36.7514 -1.1777 -0.5829 20.0765 -0.0000 -0.0000 0.0000 -82.0747 14.6865 16.9147 15.9452 -25.4462 -3.6224 -0.0000 -0.0000 39.8604 -1.2045 3.8995 -0.0819 -7.1250 0.0000 -0.0000 -22.3442 33.1850 6.9304 -0.0000 -0.0000 0.0000 88.1318 -0.9987 37.8221 -52.1171 53.8145 -27.8740 0.0000 0.0000 10.8476 -9.4679 -2.4320 0.4054 7.1250 -0.0000 -0.0000 13.7379 -32.2337 4.4038
0.00 0.00 0.00 180.2710 9.5627 -171.9410 0.0000 0.0000 0.0000 -9.2364 -18.8545 -34.5023 2.2820 9.4303 27.1507 -0.4409 20.8394 10.8759 0.2267 -3.0649 -8.4595 0.0000 0.0000 0.0000 24.0830 1.0230 5.5229 -1.1669 -6.8574 19.2935 0.4764 -12.5153 -1.2906 -1.8574 8.5625 -24.4360 -1.4128 4.2020 -3.1463 -1.8997 5.7377 0.5040 -0.8665 2.8713 2.3329 2.5739 1.2209 -33.6677 -0.3432 -1.1296 37.1023 -1.1004 -0.5902 20.2930 -0.0000 -0.0000 0.0000 -80.4593 16.3569 2.5242 10.5238 -17.5548 -1.6294 -0.0000 -0.0000 51.2970 -4.2790 3.2444 -0.2426 -7.1250 0.0000 -0.0000 -24.5014 32.4200 8.2151 -0.0000 -0.0000 0.0000 88.1785 1.9954 40.9076 -55.2938 54.9195 -30.4563 0.0000 0.0000 12.9453 -7.5351 -1.8772 0.2483 7.1250 -0.0000 -0.0000 15.1642 -31.6293 5.1177
0.00 0.00 0.00 181.4440 11.9026 -171.4850 0.0000 0.0000 0.0000 -6.3398 -20.0073 -34.6922 1.5474 7.8517 22.2646 -0.2055 22.9421 14.6520 0.0632 -1.6214 -4.4605 0.0000 0.0000 0.0000 23.4623 -0.2015 14.6994 -0.4685 -4.3903 12.1774 0.1369 -13.4194 7.6074 -2.0637 8.9975 -25.7876 -0.4643 5.2217 -5.3293 -2.1495 7.0962 -0.1396 -1.3841 3.5603 3.0457 2.6854 1.1848 -33.6758 0.2125 -1.6872 37.7590 -1.0136 -0.7261 20.7179 0.0000 0.0000 0.0000 -78.5311 17.3154 -36.4020 6.4540 -11.0173 -0.6231 -0.0000 -0.0000 88.0113 -3.6937 2.5690 -0.1658 -7.1250 0.0000 -0.0000 -23.8926 31.8329 8.3478 0.0000 0.0000 0.0000 87.9633 3.2509 43.5139 -59.3638 56.1380 -33.8122 0.0000 0.0000 14.2522 -5.9754 -1.5636 0.1636 7.1250 -0.0000 -0.0000 16.3226 -31.2771 5.6813
0.00 0.00 0.00 181.5070 12.1326 -172.6200 0.0000 0.0000 0.0000 -11.5305 -12.4398 -35.5578 2.2347 9.3387 26.8605 0.4420 16.4308 15.5898 0.0632 -1.6217 -4.4613 0.0000 0.0000 0.0000 22.5050 -0.3692 17.9407 -0.7575 -5.5585 15.5086 -0.1438 -13.2455 11.0077 -2.0523 8.9743 -25.7149 -0.2653 5.3298 -5.4635 -2.2745 7.2388 -0.1934 -1.5967 3.6372 3.1097 2.4967 1.0906 -33.5781 0.7264 -2.0191 37.9104 -0.8151 -0.8130 20.8008 0.0000 0.0000 0.0000 -77.1004 17.1116 -73.6496 6.2114 -10.6143 -0.5776 -0.0000 -0.0000 124.1530 -1.4564 2.9102 -0.0740 -7.1250 0.0000 -0.0000 -22.2955 32.2569 7.4557 0.0000 0.0000 0.0000 88.0444 2.4005 44.0659 -61.6824 56.7418 -35.7445 0.0000 0.0000 15.0431 -5.8096 -1.7760 0.1807 7.1250 -0.0000 -0.0000 16.4882 -31.4767 5.6607
0.00 0.00 0.00 178.9750 11.7272 -174.9230 0.0000 0.0000 0.0000 -18.2283 -10.8680 -32.4172 3.9269 12.0625 35.9534 -1.1411 20.5477 1.9387 0.0251 1.0234 2.8131 0.0000 0.0000 0.0000 18.6121 0.6593 15.2013 -3.2453 -11.0819 32.5565 -0.6829 -12.3322 15.9631 -1.1592 6.8355 -19.2289 -2.3151 4.8658 -4.7026 -3.0709 6.8120 0.1424 -1.3822 3.4269 2.8805 1.9737 0.9553 -33.9614 1.7816 -2.3897 37.7893 -0.2806 -0.8529 20.8578 0.0000 -0.0000 0.0000 -75.7316 14.6404 -107.7504 8.2473 -13.9529 -1.0109 -0.0000 -0.0000 156.8890 2.6907 5.5177 0.2589 -7.1250 0.0000 -0.0000 -19.7070 34.9049 5.1415 0.0000 -0.0000 0.0000 89.4421 -0.1920 42.4717 -61.0875 56.5928 -35.2474 0.0000 0.0000 17.0454 -5.4620 -2.7997 0.2676 7.1250 -0.0000 -0.0000 16.9463 -32.4494 5.4150
